<?xml version="1.0" standalone="no"?>
<!DOCTYPE svg PUBLIC "-//W3C//DTD SVG 20010904//EN"
 "http://www.w3.org/TR/2001/REC-SVG-20010904/DTD/svg10.dtd">
<svg version="1.0" xmlns="http://www.w3.org/2000/svg"
 width="500.000000pt" height="500.000000pt" viewBox="0 0 500.000000 500.000000"
 preserveAspectRatio="xMidYMid meet">

<g transform="translate(0.000000,500.000000) scale(0.100000,-0.100000)"
fill="#000000" stroke="none">
<path d="M1791 3670 c-77 -16 -141 -41 -141 -55 0 -11 8 -11 47 1 62 19 169
18 228 -2 32 -11 69 -37 112 -78 l63 -61 -269 -644 c-186 -444 -278 -653 -298
-673 -33 -36 -97 -67 -135 -68 -16 0 -28 -4 -28 -10 0 -6 78 -10 215 -10 137
0 215 4 215 10 0 6 -12 10 -26 10 -31 0 -84 50 -84 80 0 22 86 254 245 660 51
129 119 304 151 387 33 84 62 153 66 153 11 0 81 -191 238 -655 84 -247 156
-458 161 -467 7 -12 -16 -77 -82 -235 -50 -120 -101 -234 -114 -254 -25 -39
-111 -89 -152 -89 -13 0 -23 -4 -23 -10 0 -6 77 -10 210 -10 195 0 258 9 175
24 -40 8 -65 38 -65 81 0 32 108 325 120 325 4 0 12 -12 19 -27 29 -63 128
-199 192 -263 126 -126 266 -188 399 -177 78 7 160 26 160 38 0 5 -33 9 -73 9
-80 0 -160 22 -232 64 -88 52 -236 238 -314 394 l-31 62 248 0 248 0 48 -147
c117 -355 222 -545 380 -690 117 -107 251 -160 376 -150 75 6 160 26 160 37 0
4 -42 10 -92 12 -62 3 -112 12 -148 26 -147 57 -308 255 -429 528 -27 60 -115
298 -196 529 -214 609 -236 662 -319 770 -89 114 -208 171 -340 163 -77 -5
-226 -45 -226 -61 0 -5 12 -6 28 -3 15 4 68 10 119 13 83 5 96 3 146 -20 58
-26 142 -97 151 -125 8 -23 -249 -638 -257 -618 -4 9 -68 190 -143 403 -163
463 -192 534 -256 629 -90 134 -189 196 -323 200 -44 2 -100 -1 -124 -6z
m1195 -776 c21 -48 224 -636 224 -650 0 -2 -109 -4 -243 -4 -176 0 -246 3
-255 12 -25 25 -31 7 197 591 24 59 45 107 47 107 3 0 16 -25 30 -56z"/>
</g>
</svg>
