<?xml version="1.0" standalone="no"?>
<!DOCTYPE svg PUBLIC "-//W3C//DTD SVG 20010904//EN"
 "http://www.w3.org/TR/2001/REC-SVG-20010904/DTD/svg10.dtd">
<svg version="1.0" xmlns="http://www.w3.org/2000/svg"
 width="327.000000pt" height="105.000000pt" viewBox="0 0 327.000000 105.000000"
 preserveAspectRatio="xMidYMid meet">

<g transform="translate(0.000000,105.000000) scale(0.100000,-0.100000)"
fill="#000000" stroke="none">
<path d="M0 525 l0 -525 1635 0 1635 0 0 525 0 525 -1635 0 -1635 0 0 -525z
m1188 125 c38 -13 68 -32 90 -56 29 -34 32 -43 32 -102 0 -116 -62 -172 -200
-180 -89 -5 -147 9 -190 44 -43 37 -60 75 -60 137 0 80 46 135 134 163 60 19
129 17 194 -6z m1108 -8 c23 -12 53 -35 68 -52 23 -28 26 -41 26 -102 0 -87
-21 -120 -98 -155 -47 -22 -64 -25 -136 -21 -140 8 -206 59 -214 166 -3 47 0
63 20 91 49 72 120 103 223 98 46 -3 84 -11 111 -25z m-1956 -143 c102 -192
96 -179 71 -179 -14 0 -27 13 -41 40 l-20 40 -118 0 -117 0 -23 -40 c-15 -26
-30 -40 -43 -40 -18 0 -12 16 51 138 138 261 125 259 240 41z m399 155 c17 -4
42 -17 56 -30 23 -21 26 -31 23 -80 -3 -49 -7 -60 -31 -78 -25 -18 -45 -21
-158 -24 l-129 -4 0 -59 c0 -52 -2 -59 -20 -59 -19 0 -20 7 -20 170 l0 170
124 0 c68 0 137 -3 155 -6z m661 -149 l0 -155 115 0 c96 0 115 -3 115 -15 0
-13 -21 -15 -130 -15 l-130 0 0 170 c0 144 2 170 15 170 13 0 15 -24 15 -155z
m290 0 l0 -155 115 0 c96 0 115 -3 115 -15 0 -13 -22 -15 -135 -15 l-135 0 0
170 c0 163 1 170 20 170 19 0 20 -7 20 -155z m1190 -6 c102 -192 96 -179 71
-179 -14 0 -27 13 -41 40 l-20 40 -118 0 -117 0 -23 -40 c-15 -26 -30 -40 -43
-40 -18 0 -12 16 51 138 138 261 125 259 240 41z m170 -9 c0 -163 -1 -170 -20
-170 -19 0 -20 7 -20 170 0 163 1 170 20 170 19 0 20 -7 20 -170z"/>
<path d="M984 612 c-112 -53 -122 -172 -20 -240 52 -35 170 -38 231 -6 105 54
110 164 12 238 -39 29 -168 34 -223 8z"/>
<path d="M2060 608 c-104 -53 -110 -172 -12 -238 31 -22 47 -25 122 -25 75 0
91 3 122 25 69 46 88 121 48 186 -45 72 -187 99 -280 52z"/>
<path d="M186 538 c-25 -47 -46 -90 -46 -97 0 -7 29 -11 90 -11 66 0 90 3 89
13 0 6 -19 50 -43 96 l-43 85 -47 -86z"/>
<path d="M500 550 l0 -70 123 0 c116 0 125 1 145 23 28 30 28 68 -1 95 -21 20
-34 22 -145 22 l-122 0 0 -70z"/>
<path d="M2726 538 c-25 -47 -46 -90 -46 -97 0 -7 29 -11 90 -11 66 0 90 3 89
13 0 6 -19 50 -43 96 l-43 85 -47 -86z"/>
</g>
</svg>
